<svg id="visual" viewBox="0 0 300 50" width="300" height="50" xmlns="http://www.w3.org/2000/svg" xmlns:xlink="http://www.w3.org/1999/xlink" version="1.1"><rect x="0" y="0" width="300" height="50" fill="#0d102f"></rect><path d="M0 37L4.2 34.2C8.3 31.3 16.7 25.7 25 26.5C33.3 27.3 41.7 34.7 50 36.7C58.3 38.7 66.7 35.3 75 31.5C83.3 27.7 91.7 23.3 100 24.3C108.3 25.3 116.7 31.7 125 36.2C133.3 40.7 141.7 43.3 150 42.7C158.3 42 166.7 38 175 38C183.3 38 191.7 42 200 39C208.3 36 216.7 26 225 23.3C233.3 20.7 241.7 25.3 250 30C258.3 34.7 266.7 39.3 275 39.8C283.3 40.3 291.7 36.7 295.8 34.8L300 33L300 51L295.8 51C291.7 51 283.3 51 275 51C266.7 51 258.3 51 250 51C241.7 51 233.3 51 225 51C216.7 51 208.3 51 200 51C191.7 51 183.3 51 175 51C166.7 51 158.3 51 150 51C141.7 51 133.3 51 125 51C116.7 51 108.3 51 100 51C91.7 51 83.3 51 75 51C66.7 51 58.3 51 50 51C41.7 51 33.3 51 25 51C16.7 51 8.3 51 4.2 51L0 51Z" fill="#070044" stroke-linecap="round" stroke-linejoin="miter"></path></svg>